<svg xmlns="http://www.w3.org/2000/svg" viewBox="0 0 600 150" width="600" height="150" role="img" aria-label="Old Phuket Town shophouses"><g><rect x="0" y="22" width="120" height="128" fill="#F2B8C0"/><path d="M0 22h120v-6h-120z" fill="#FBF6EE"/><path d="M34.0 16a26 14 0 0 1 52 0z" fill="#F2B8C0" stroke="#FBF6EE" stroke-width="3"/><rect x="4" y="22" width="6" height="128" fill="#FBF6EE" opacity=".85"/><rect x="110" y="22" width="6" height="128" fill="#FBF6EE" opacity=".85"/><rect x="0" y="74" width="120" height="5" fill="#FBF6EE"/><path d="M22 68v-26a10 10 0 0 1 20 0v26z" fill="#FBF6EE"/><path d="M25 66v-23a7 7 0 0 1 7-7v30z" fill="#0E7C86"/><path d="M32 66v-30a7 7 0 0 1 7 7v23z" fill="#0E7C86" opacity=".82"/><path d="M50 68v-26a10 10 0 0 1 20 0v26z" fill="#FBF6EE"/><path d="M53 66v-23a7 7 0 0 1 7-7v30z" fill="#0E7C86"/><path d="M60 66v-30a7 7 0 0 1 7 7v23z" fill="#0E7C86" opacity=".82"/><path d="M78 68v-26a10 10 0 0 1 20 0v26z" fill="#FBF6EE"/><path d="M81 66v-23a7 7 0 0 1 7-7v30z" fill="#0E7C86"/><path d="M88 66v-30a7 7 0 0 1 7 7v23z" fill="#0E7C86" opacity=".82"/><path d="M16 150v-44a44 26 0 0 1 88 0v44z" fill="#0F2A33" opacity=".22"/><rect x="47.0" y="110" width="26" height="40" fill="#0E7C86"/><rect x="59.0" y="110" width="2" height="40" fill="#FBF6EE" opacity=".6"/></g><g><rect x="120" y="22" width="120" height="128" fill="#F4D77F"/><path d="M120 22h120v-6h-120z" fill="#FBF6EE"/><path d="M150.0 16v-6h12v-5h36v5h12v6z" fill="#F4D77F" stroke="#FBF6EE" stroke-width="3"/><rect x="124" y="22" width="6" height="128" fill="#FBF6EE" opacity=".85"/><rect x="230" y="22" width="6" height="128" fill="#FBF6EE" opacity=".85"/><rect x="120" y="74" width="120" height="5" fill="#FBF6EE"/><path d="M142 68v-26a10 10 0 0 1 20 0v26z" fill="#FBF6EE"/><path d="M145 66v-23a7 7 0 0 1 7-7v30z" fill="#0A6068"/><path d="M152 66v-30a7 7 0 0 1 7 7v23z" fill="#0A6068" opacity=".82"/><path d="M170 68v-26a10 10 0 0 1 20 0v26z" fill="#FBF6EE"/><path d="M173 66v-23a7 7 0 0 1 7-7v30z" fill="#0A6068"/><path d="M180 66v-30a7 7 0 0 1 7 7v23z" fill="#0A6068" opacity=".82"/><path d="M198 68v-26a10 10 0 0 1 20 0v26z" fill="#FBF6EE"/><path d="M201 66v-23a7 7 0 0 1 7-7v30z" fill="#0A6068"/><path d="M208 66v-30a7 7 0 0 1 7 7v23z" fill="#0A6068" opacity=".82"/><path d="M136 150v-44a44 26 0 0 1 88 0v44z" fill="#0F2A33" opacity=".22"/><rect x="167.0" y="110" width="26" height="40" fill="#0A6068"/><rect x="179.0" y="110" width="2" height="40" fill="#FBF6EE" opacity=".6"/></g><g><rect x="240" y="22" width="120" height="128" fill="#A9DCC8"/><path d="M240 22h120v-6h-120z" fill="#FBF6EE"/><path d="M274.0 16a26 14 0 0 1 52 0z" fill="#A9DCC8" stroke="#FBF6EE" stroke-width="3"/><rect x="244" y="22" width="6" height="128" fill="#FBF6EE" opacity=".85"/><rect x="350" y="22" width="6" height="128" fill="#FBF6EE" opacity=".85"/><rect x="240" y="74" width="120" height="5" fill="#FBF6EE"/><path d="M262 68v-26a10 10 0 0 1 20 0v26z" fill="#FBF6EE"/><path d="M265 66v-23a7 7 0 0 1 7-7v30z" fill="#0E7C86"/><path d="M272 66v-30a7 7 0 0 1 7 7v23z" fill="#0E7C86" opacity=".82"/><path d="M290 68v-26a10 10 0 0 1 20 0v26z" fill="#FBF6EE"/><path d="M293 66v-23a7 7 0 0 1 7-7v30z" fill="#0E7C86"/><path d="M300 66v-30a7 7 0 0 1 7 7v23z" fill="#0E7C86" opacity=".82"/><path d="M318 68v-26a10 10 0 0 1 20 0v26z" fill="#FBF6EE"/><path d="M321 66v-23a7 7 0 0 1 7-7v30z" fill="#0E7C86"/><path d="M328 66v-30a7 7 0 0 1 7 7v23z" fill="#0E7C86" opacity=".82"/><path d="M256 150v-44a44 26 0 0 1 88 0v44z" fill="#0F2A33" opacity=".22"/><rect x="287.0" y="110" width="26" height="40" fill="#0E7C86"/><rect x="299.0" y="110" width="2" height="40" fill="#FBF6EE" opacity=".6"/></g><g><rect x="360" y="22" width="120" height="128" fill="#A9D2E6"/><path d="M360 22h120v-6h-120z" fill="#FBF6EE"/><path d="M390.0 16v-6h12v-5h36v5h12v6z" fill="#A9D2E6" stroke="#FBF6EE" stroke-width="3"/><rect x="364" y="22" width="6" height="128" fill="#FBF6EE" opacity=".85"/><rect x="470" y="22" width="6" height="128" fill="#FBF6EE" opacity=".85"/><rect x="360" y="74" width="120" height="5" fill="#FBF6EE"/><path d="M382 68v-26a10 10 0 0 1 20 0v26z" fill="#FBF6EE"/><path d="M385 66v-23a7 7 0 0 1 7-7v30z" fill="#0A6068"/><path d="M392 66v-30a7 7 0 0 1 7 7v23z" fill="#0A6068" opacity=".82"/><path d="M410 68v-26a10 10 0 0 1 20 0v26z" fill="#FBF6EE"/><path d="M413 66v-23a7 7 0 0 1 7-7v30z" fill="#0A6068"/><path d="M420 66v-30a7 7 0 0 1 7 7v23z" fill="#0A6068" opacity=".82"/><path d="M438 68v-26a10 10 0 0 1 20 0v26z" fill="#FBF6EE"/><path d="M441 66v-23a7 7 0 0 1 7-7v30z" fill="#0A6068"/><path d="M448 66v-30a7 7 0 0 1 7 7v23z" fill="#0A6068" opacity=".82"/><path d="M376 150v-44a44 26 0 0 1 88 0v44z" fill="#0F2A33" opacity=".22"/><rect x="407.0" y="110" width="26" height="40" fill="#0A6068"/><rect x="419.0" y="110" width="2" height="40" fill="#FBF6EE" opacity=".6"/></g><g><rect x="480" y="22" width="120" height="128" fill="#F3BF98"/><path d="M480 22h120v-6h-120z" fill="#FBF6EE"/><path d="M514.0 16a26 14 0 0 1 52 0z" fill="#F3BF98" stroke="#FBF6EE" stroke-width="3"/><rect x="484" y="22" width="6" height="128" fill="#FBF6EE" opacity=".85"/><rect x="590" y="22" width="6" height="128" fill="#FBF6EE" opacity=".85"/><rect x="480" y="74" width="120" height="5" fill="#FBF6EE"/><path d="M502 68v-26a10 10 0 0 1 20 0v26z" fill="#FBF6EE"/><path d="M505 66v-23a7 7 0 0 1 7-7v30z" fill="#0E7C86"/><path d="M512 66v-30a7 7 0 0 1 7 7v23z" fill="#0E7C86" opacity=".82"/><path d="M530 68v-26a10 10 0 0 1 20 0v26z" fill="#FBF6EE"/><path d="M533 66v-23a7 7 0 0 1 7-7v30z" fill="#0E7C86"/><path d="M540 66v-30a7 7 0 0 1 7 7v23z" fill="#0E7C86" opacity=".82"/><path d="M558 68v-26a10 10 0 0 1 20 0v26z" fill="#FBF6EE"/><path d="M561 66v-23a7 7 0 0 1 7-7v30z" fill="#0E7C86"/><path d="M568 66v-30a7 7 0 0 1 7 7v23z" fill="#0E7C86" opacity=".82"/><path d="M496 150v-44a44 26 0 0 1 88 0v44z" fill="#0F2A33" opacity=".22"/><rect x="527.0" y="110" width="26" height="40" fill="#0E7C86"/><rect x="539.0" y="110" width="2" height="40" fill="#FBF6EE" opacity=".6"/></g></svg>
